<svg id="Capa_1" enable-background="new 0 0 512 512" height="30" viewBox="0 0 512 512" width="30" xmlns="http://www.w3.org/2000/svg"><g><g><g><g><g><g><g><g><g><circle cx="256" cy="256" fill="#a3d4ff" r="256"/></g></g></g></g></g></g></g></g><path d="m512 256c0-16.78-1.615-33.183-4.697-49.062l-83.847-83.847-334.913 233.267 155.361 155.361c4.009.187 8.041.281 12.096.281 141.385 0 256-114.615 256-256z" fill="#65b1fc"/><g><path d="m207.62 327.363h96.76v77.213h-96.76z" fill="#414952"/></g><g><path d="m256.12 327.363h48.26v77.212h-48.26z" fill="#23272b"/></g><g><path d="m88.543 123.092h334.913v233.266h-334.913z" fill="#555a66"/></g><g><path d="m256.12 123.092h167.336v233.266h-167.336z" fill="#333940"/></g><g><path d="m118.8 152.087h274.399v175.276h-274.399z" fill="#fff"/></g><g><path d="m256.12 152.087h137.079v175.276h-137.079z" fill="#e9edf5"/></g><g><path d="m185.14 379.815h141.719v40.072h-141.719z" fill="#636978"/></g><g><path d="m256.12 379.815h70.739v40.072h-70.739z" fill="#414952"/></g><g><path d="m198.779 213.825h114.441v86.934h-114.441z" fill="#636978"/></g><g><path d="m256.106 213.824h57.115v86.934h-57.115z" fill="#414952"/></g><g><path d="m334.316 213.824h24.331v71.186h-24.331z" fill="#ffce00"/></g><g><path d="m147.512 186.458h216.977v37.792h-216.977z" fill="#414952"/></g><g><path d="m256.12 186.458h108.368v37.792h-108.368z" fill="#23272b"/></g></g></svg>